<svg xmlns="http://www.w3.org/2000/svg" xml:space="preserve" viewBox="0 0 1315 1242"><path fill="none" d="M656.444 477.774c-5.45-4.67-10.6-9.72-16.03-14.36-2.5-3.02-5.31-5.76-8.09-8.52l.01-.17c-11.71-12.53-21.81-26.45-30.88-40.98-.98-1.68-1.94-3.38-2.9-5.06-3.95.6-7.87 1.3-11.8 1.97-1.44.26-2.84.64-4.23 1.04-8.38.91-16.57 3.27-24.95 4.35-1.99 6.88-4.86 13.46-7.22 20.2-1.23 2.26-2.27 4.61-3.26 6.99-3.01 5.94-6.01 11.89-9.42 17.63-.38.61-1.775 2.743-1.89 2.76-2.71 4.95-6.2 9.4-9.17 14.19 43.28.08 86.56.15 129.83-.04zM519.044 801.894c1.76 0 3.54.01 5.31.03.02-74.27.02-148.54.01-222.81-1.8-.01-3.59-.02-5.37-.01.07 74.26-.03 148.53.05 222.79zM514.394 579.063l-.6.01c-1.76.02-3.51.1-5.24.39.35 19.44.06 38.89.15 58.33-.02 54.7.06 109.4-.03 164.09 1.34-.01 2.68-.01 4.03-.01l1.23.31c.48-1.12.69-2.27.65-3.47-.26-73.21.18-146.44-.19-219.65zM503.624 578.974c-1.77.06-3.52.14-5.28.19.11 74.26.01 148.52.05 222.78l1.47-.06c.48-.01 1.43-.03 1.91-.05l1.4.43c.33-1.15.49-2.31.5-3.49-.08-73.26.03-146.53-.05-219.8zM568.524 746.774c0-32 .01-64 0-96-.14-23.73.33-47.48-.26-71.21l.03-.42c-1.74 0-3.48.01-5.21.01l.03.33c-.52 17.4-.17 34.82-.28 52.23-.01 53.7.01 107.4.01 161.1-.01 3.11-.17 6.25.37 9.35l1.52-.3 1.96.04 1.55.04c.67-18.37.08-36.78.28-55.17zM488.024 579.124c.04 74.16-.06 148.32.05 222.48.5.1 1.51.31 2.01.42.32 0 .96.02 1.28.03.46-.18 1.37-.55 1.83-.73.19-74.06.01-148.14.09-222.2h-5.26zM547.594 578.964c-1.76.05-3.52.15-5.27.36.27 74.2.09 148.4.09 222.59 1.44-.02 2.88-.03 4.33-.03l.97-.02c-.14-74.3.11-148.6-.12-222.9zM558.424 579.073l-.65.02c-1.78.03-3.57 0-5.28.5.5 5.36.17 10.75.26 16.13-.07 68.72.15 137.44-.11 206.16 1.35-.01 2.71 0 4.07.01l1.26.13c.31-1.74.53-3.51.57-5.26-.12-72.57.12-145.13-.12-217.69zM461.344 579.224c-29.65-.09-59.32-.1-88.98 0 .14 74.24.04 148.48.05 222.71.52-.04 1.57-.14 2.1-.19.49.08 1.47.23 1.96.3l1.16-.12c.05-29.59-.14-59.18.1-88.77 20.74.2 41.48 0 62.23.11.03-1.63.09-3.25.16-4.86-20.8-.6-41.64-.13-62.46-.24.14-1.77-.16-3.62.4-5.31 20.65.26 41.31.02 61.96.12-.03-1.74-.04-3.46-.05-5.18l-.87.18c-5.8-.36-11.6-.09-17.39-.17-14.71.18-29.44-.38-44.12.28-.05-1.76 0-3.51.02-5.25 20.79.07 41.57-.03 62.36.05 0-1.75.01-3.48.03-5.21-17.43-.02-34.86-.01-52.29-.01-3.37.01-6.75-.18-10.09.32.05-1.81.07-3.62.04-5.41 20.78.09 41.57-.03 62.35.06-.01-1.77-.01-3.54 0-5.3-20.84.13-41.69-.15-62.52.14.4-1.72.23-3.49.24-5.22 20.75.11 41.5-.03 62.26.06-.01-1.69 0-3.38.03-5.05-20.75-.22-41.5-.12-62.25-.05l-.24-.85c.13-13.57.02-27.14.05-40.71 26.39-.03 52.79-.05 79.18 0 1.72-.03 3.44-.29 5.14-.6l-.49-1.57c.13-.39.38-1.15.5-1.54l.01-1.44c-2.7-.53-5.47-.38-8.2-.37-25.34.04-50.69-.04-76.03.04.02-1.75.01-3.5.15-5.23 27.97.16 55.94 0 83.91.08l-.09-1.38c0-1.26 0-2.52.01-3.76-27.99-.04-55.99-.06-83.98 0 .02-1.7-.02-3.4.18-5.08 27.91.14 55.83-.01 83.74.07 0-1.72.02-3.44.05-5.14l-.78.01c-27.7.05-55.4-.01-83.09.03-.12-1.74-.09-3.48-.08-5.21 27.99.03 55.98-.02 83.97.03-.02-1.25-.04-2.5-.05-3.73l.17-1.4c-28.12.11-56.25-.13-84.37.12.47-1.71.26-3.52.36-5.26 28.01-.14 56.02.17 84.02-.16l-.45-1.53c.19-.44.56-1.31.75-1.75-.19-.42-.57-1.25-.77-1.66zM341.274 579.214c.17 74.23.05 148.45.05 222.68l1.23-.01c1.34-.01 2.69-.01 4.04.01-.09-58.38-.01-116.76-.04-175.14.16-15.7-.32-31.43.25-47.11-1.75-.74-3.69-.43-5.53-.43zM477.614 801.904c1.31-.02 2.63-.03 3.96-.02l1.3.03c-.01-74.25-.02-148.51 0-222.76-1.71-.02-3.42-.05-5.12-.07-.28 74.27 0 148.55-.14 222.82zM351.864 579.104l-.2 1.79c.01 73.68.05 147.36-.02 221.03 1.33-.02 2.67-.03 4.01-.03l1.25.03c-.05-74.21-.12-148.42.03-222.63-1.69-.07-3.38-.13-5.07-.19zM336.494 621.803c-.09-14.28.28-28.6-.35-42.86-1.72.07-3.43.11-5.15.14l.06.16c-.3 74.2-.01 148.41-.15 222.62l1.12.03c1.38 0 2.78.02 4.17.05.52-4.69.26-9.41.29-14.11-.01-55.34.03-110.69.01-166.03zM362.034 579.124c.08 74.12-.03 148.24.06 222.35.47.15 1.41.46 1.88.61l1.35-.04 1.92-.52c.06-74.12-.04-148.26.04-222.39-1.75-.01-3.5-.01-5.25-.01zM578.644 579.073l-5.03.03-.57-.02c-.12 72.57-.05 145.13-.07 217.69-.05 1.74.08 3.5.4 5.24 1.78-.09 3.58-.14 5.38-.17-.17-74.26 0-148.51-.11-222.77zM415.924 430.634c7.8-5.17 15.27-11.22 20.93-18.72.41-.38 1.23-1.15 1.64-1.53h.08c11.64-14.43 20.11-31.94 22.22-50.45 1.52-9.45 1.73-19.13.25-28.6.15-1.94-.29-3.86-.6-5.75-4.58-24.36-18.2-47.06-37.94-62.13-.4-.27-1.2-.83-1.6-1.11-.38-.27-1.15-.81-1.53-1.08-.56-1.26-2.33-1.68-3.39-2.53-28.6-19.41-67.21-22.54-98.69-8.36-26.08 11.42-46.87 34.17-55.91 61.17-7.29 21.3-7.25 44.98.03 66.28 8.21 24.38 25.96 45.36 48.63 57.53 18.67 10.16 40.57 14.25 61.66 11.53.74-.13 2.23-.38 2.97-.51 14.71-1.86 28.86-7.65 41.25-15.74zm-16.24-127.16c6.7-.67 12.83 3.45 16.22 8.99 1 3.73 1.68 7.61 1.11 11.48-.19.59-.56 1.77-.74 2.36-.28.6-.58 1.19-.88 1.79-2.11 3.82-5.74 6.36-9.64 8.1-2.86.49-5.77.47-8.65.3-5.98-1.85-11.29-6.52-12.52-12.84-2.53-9.49 5.33-19.84 15.1-20.18zm-18.8 65.82c1.43-1.66 3.04-3.15 4.65-4.62 3.98-2.14 8.69-3.15 13.13-2.03 5.94 1.32 10.8 6.27 12.25 12.14 1.48 5.55-.43 11.74-4.49 15.73-3.97 4.03-10.16 5.83-15.65 4.33-6.26-1.43-11.34-6.88-12.42-13.2-.84-4.27.33-8.68 2.53-12.35zm-87.1-31.54c-2.85-8.76 3.2-18.85 12.13-20.75 7.55-1.92 16.01 2.31 19.01 9.49 3.87 8.31-.59 19.19-9.27 22.23-8.67 3.65-19.56-1.89-21.87-10.97zm55.55 55.21c-2.23 7.48-9.68 13.26-17.62 12.45-8.39-.55-15.57-8.17-15.31-16.62-.26-8.78 7.62-16.66 16.38-16.51 7.58-.32 14.34 5.25 16.53 12.33.3 2.77.3 5.57.02 8.35zm-2.55-87.87c-9.62-1.1-16.52-11.69-13.59-20.95 1.41-5.15 5.54-9.4 10.57-11.11 10.23-3.98 22.67 4.67 22.01 15.72.42 9.77-9.43 18.08-18.99 16.34zM960.814 801.894c1.76-.01 3.53 0 5.32.03-12.6-74.28-25.09-148.57-37.76-222.84-1.74.01-3.46.01-5.17.01-24.17 54.94-48.3 109.89-72.48 164.81-23.43-54.94-47.01-109.82-70.4-164.78-1.88-.02-3.75-.03-5.62-.03 24.23 56.6 48.52 113.19 72.77 169.78 1.13 2.69-1.44 5.1-2.33 7.52-25.07-59.18-50.58-118.16-75.77-177.29h-5.8c26.21 61.44 52.79 122.73 79.07 184.14-1.05 2.15-1.95 4.4-3.37 6.35-4.44-11.27-9.41-22.32-14.05-33.51-22.21-52.33-44.28-104.71-66.59-156.99-2.02.01-4.04 0-6.04.01 27.95 65.91 55.96 131.8 84.03 197.67-.95 2.04-1.89 4.09-2.86 6.13-29.09-67.94-58.04-135.93-87.21-203.83-1.85.02-3.69.04-5.52.08 30.11 70.18 59.96 140.47 90.1 210.64-.89 1.96-1.85 3.89-2.91 5.78-30.88-72.16-61.6-144.38-92.61-216.48l-5.47.03c-12.47 74.27-25.11 148.52-37.67 222.78 1.74-.02 3.5-.02 5.26-.02 11.95-71.07 24-142.12 35.8-213.21 1.78 2.74 3.28 5.84 3.99 9.04-11.33 68.1-23.09 136.14-34.31 204.27 1.61-.05 3.22-.07 4.84-.08 11.18-65.37 22.3-130.74 33.3-196.13 1.43 3.15 3.7 6.35 3.53 9.93-10.5 62.06-20.88 124.14-31.44 186.19 1.77-.01 3.54-.01 5.33.01 8.43-50.11 16.93-100.2 25.4-150.3 1.73-9.22 2.81-18.57 4.94-27.7 1.07 3.63 4.04 7.07 3.08 11.03-9.36 55.68-18.74 111.35-28.07 167.02 1.57-.04 3.14-.07 4.72-.09 9.14-53.72 18.34-107.44 27.57-161.16 1.17 3.55 3.61 7.04 3.05 10.91-8.36 50.1-16.64 100.22-25.01 150.32 1.66-.03 3.34-.04 5.03-.04 8.06-47.67 16.23-95.33 24.34-143 1.72 3.02 2.88 6.3 4.28 9.47 19.17 44.53 38.14 89.14 57.4 133.63 1.95-.09 3.91-.16 5.87-.27 30.85-71.13 62.13-142.08 93.07-213.17.84 3.02 2.04 6.29 1.51 9.42-29.83 67.98-59.59 136-89.45 203.97l5.241-.005 85.786-195.438 1.728 10.048-81.373 185.385h.138c.688-.078 2.688-.11 5.109-.12l77.588-176.762 1.728 10.048-73.182 166.725c2.915.015 5.45.036 6.237.029 14.59-33.76 29.44-67.41 44.09-101.14 8.32-18.6 16.05-37.47 24.64-55.93.15 3.25 1.76 6.65.79 9.85-21.51 49.1-43.03 98.19-64.55 147.28 1.99-.03 3.99-.07 6-.13 20.22-46.16 40.3-92.39 60.84-138.4 7.86 46.16 15.75 92.32 23.5 138.51zM677.724 785.803c-29.6-.02-59.2.3-88.8-.16.01-1.45-.03-2.89-.11-4.32 27.97.12 55.93.01 83.9.06 2.78 0 5.59.2 8.34-.36l-.39-1.32c.02-.47.05-1.4.06-1.86l.27-1.3c-2.75-.53-5.56-.34-8.33-.33-25.99.01-51.99-.04-77.98.02-2.05-.07-4.2.27-6.14-.53.87-1.29.85-2.56-.05-3.83l.45-.78c30.63-.17 61.26-.06 91.89-.06l-.11-1.44c0-.42.01-1.27.02-1.7l.28-1.58c-4.72-.84-9.55-.18-14.31-.38-25.92-.07-51.85.11-77.76-.08.02-1.69.04-3.38.07-5.05 30.6.06 61.2.01 91.8.03l-.09-1.04c-.01-1.37 0-2.73.01-4.09-30.54.14-61.1-.25-91.63.2l-.14-.06c.11-58.87-.08-117.74.09-176.6-1.76-.1-3.52-.17-5.27-.24-.27 74.3 0 148.61-.13 222.92l.88-.03c30.55-.22 61.12.32 91.66-.26 1.51.26 3.06.29 4.62.38-.05-1.39-.09-2.78-.11-4.15l.09-1.24c-30.58.08-61.15-.03-91.73.06-.1-1.66-.1-3.3-.13-4.94 30.62-.1 61.23-.01 91.84-.04-.04-1.31-.07-2.6-.1-3.88l.4-1.34a6.517 6.517 0 0 0-3.36-.68zM971.524 801.933c1.64-.06 3.31-.1 4.98-.14-12.51-74.2-25.04-148.4-37.36-222.63-1.79-.03-3.58-.05-5.35-.07 12.57 74.28 25.13 148.57 37.73 222.84zM965.164 579.114c12.53 74.26 25.13 148.51 37.69 222.76 1.73.01 3.48.02 5.24.06-12.53-74.29-25.11-148.57-37.71-222.84-1.75.01-3.49.01-5.22.02zM722.104 366.553c12.27 12.73 27.25 22.87 43.65 29.48l1.19-.22c.2.32.61.94.81 1.26 9.13 2.75 18.27 6.23 27.87 6.72 11.67 1.87 23.62 1.86 35.3.08 2.5.15 4.95-.44 7.4-.89 1.37-.25 2.79-.48 4.19-.72 8.94-2.52 17.86-5.29 26.21-9.44 1.16-.54 2.28-1.12 3.45-1.67l.24.03c9.57-5.23 19.07-11.28 26.79-18.91 2.57-2.37 5.31-4.64 7.44-7.44.7-.79 1.42-1.57 2.14-2.35 2.78-2.68 5.03-5.84 7.36-8.9 1.76-2.29 3.82-4.43 5.01-7.1-.027-.36 9.03-15.45 10.81-22.08.2-.16 4.19-10.69 5.36-15.87 7.8-31.74 3.19-66.72-13.86-94.74-.48-.92-.94-1.83-1.38-2.73-.99-1.63-2.11-3.15-3.39-4.53-2.42-4.89-6.2-9.04-9.91-13 0 0-6.02-5.819-5.79-5.83-2.86-3.86-6.86-6.65-10.44-9.77-2.01-1.42-10.8-7.64-11.78-8.32-9.36-5.64-19.34-10.3-29.79-13.5-5.4-1.35-10.77-2.93-16.29-3.68a32 32 0 0 0-8.03-1c-14.76-.64-29.8-.87-44.19 3.05l.03.5c-2.01.12-4.03.38-5.95.99-8.81 2.76-17.34 6.42-25.41 10.92l-.04.27c-3.51 1.84-6.89 3.92-10.05 6.3-3.13 1.53-5.69 4.07-8.45 6.17-3.01 2.68-6.52 5-8.61 8.54-.32.15-.96.44-1.28.59l-.94.97c-.79.67-1.58 1.42-1.92 2.41-2.09 1.71-3.89 3.75-5.26 6.07-4.21 4.39-7.4 9.73-10.6 14.9-18.3 30.4-22.63 68.64-12.13 102.47 5.83 18.99 16.26 36.53 30.07 50.8l.17.17zm129.17-134.03c.03-.03.1-.09.14-.12 4.62-4.07 11.06-6.22 17.18-5.01 7.62 1.09 14 7.04 16.4 14.25.67 2.95.68 5.99.64 9-1.02 5.62-4.2 10.85-9 14-7.43 5.21-18.26 4.4-25.01-1.59-.03-.03-.1-.09-.14-.13-8.9-7.62-9.05-22.67-.21-30.4zm-13.98 85.3c.7-6.59 4.81-12.74 10.74-15.75 6.35-3.45 14.54-3.12 20.64.74 4.58 2.71 7.38 7.43 9.26 12.26.4 3.19.45 6.44-.09 9.62-1.73 5.37-5.05 10.44-10.14 13.13-6.27 3.73-14.53 3.54-20.65-.38-3.69-2.19-6.23-5.75-8.64-9.2-.68-3.42-1.57-6.9-1.12-10.42zm-56.13-112.17c1.02-6.76 5.72-12.41 11.64-15.61.54-.17 1.63-.5 2.17-.67 5.04-2.04 10.4-1.02 15.34.76 4.05 2.52 7.91 5.75 9.85 10.24 2.96 6.61 2.22 14.84-2.19 20.64-4.99 6.9-14.6 10.28-22.7 7.35-9.46-2.71-15.83-13.04-14.11-22.71zm12.91 110.72c.04.03.11.08.14.11 1.36 1.13 2.61 2.39 3.73 3.76.03.04.09.11.11.15 2.88 4.1 4.42 9.23 3.84 14.24-.75 8.26-7.06 15.73-15.14 17.73-6.33 1.86-13.46.08-18.48-4.1-6.16-5.03-8.93-13.89-6.5-21.49 1.84-6.6 7.36-11.93 13.92-13.8 6.22-2.13 13.17-.38 18.38 3.4zm-47.89-72c5.76-1.78 12.42-1.28 17.5 2.15 6.36 4 10.2 11.65 9.34 19.16-.51 10.62-10.73 19.52-21.31 18.61-10.63-.19-19.81-9.94-19.52-20.54-.09-8.59 5.89-16.66 13.99-19.38zM954.764 579.104c12.51 74.27 25.01 148.54 37.4 222.82 1.76-.01 3.53-.01 5.31.01-12.6-74.27-25.05-148.57-37.77-222.82-1.66-.01-3.3-.01-4.94-.01zM944.094 579.114c12.69 74.24 25.14 148.52 37.77 222.77 1.74 0 3.49 0 5.26.02-12.56-74.27-25.16-148.54-37.69-222.82-1.79.01-3.57.01-5.34.03z"/><path d="M795.274 228.363c8.1 2.93 17.71-.45 22.7-7.35 4.41-5.8 5.15-14.03 2.19-20.64-1.94-4.49-5.8-7.72-9.85-10.24-4.94-1.78-10.3-2.8-15.34-.76-.54.17-1.63.5-2.17.67-5.92 3.2-10.62 8.85-11.64 15.61-1.72 9.67 4.65 20 14.11 22.71zM851.484 262.924c.04.04.11.1.14.13 6.75 5.99 17.58 6.8 25.01 1.59 4.8-3.15 7.98-8.38 9-14 .04-3.01.03-6.05-.64-9-2.4-7.21-8.78-13.16-16.4-14.25-6.12-1.21-12.56.94-17.18 5.01-.04.03-.11.09-.14.12-8.84 7.73-8.69 22.78.21 30.4zM751.714 284.293c10.58.91 20.8-7.99 21.31-18.61.86-7.51-2.98-15.16-9.34-19.16-5.08-3.43-11.74-3.93-17.5-2.15-8.1 2.72-14.08 10.79-13.99 19.38-.29 10.6 8.89 20.35 19.52 20.54zM343.764 273.033c-5.03 1.71-9.16 5.96-10.57 11.11-2.93 9.26 3.97 19.85 13.59 20.95 9.56 1.74 19.41-6.57 18.99-16.34.66-11.05-11.78-19.7-22.01-15.72zM847.054 337.444c6.12 3.92 14.38 4.11 20.65.38 5.09-2.69 8.41-7.76 10.14-13.13.54-3.18.49-6.43.09-9.62-1.88-4.83-4.68-9.55-9.26-12.26-6.1-3.86-14.29-4.19-20.64-.74-5.93 3.01-10.04 9.16-10.74 15.75-.45 3.52.44 7 1.12 10.42 2.41 3.45 4.95 7.01 8.64 9.2zM397.104 336.493c2.88.17 5.79.19 8.65-.3 3.9-1.74 7.53-4.28 9.64-8.1.3-.6.6-1.19.88-1.79.18-.59.55-1.77.74-2.36.57-3.87-.11-7.75-1.11-11.48-3.39-5.54-9.52-9.66-16.22-8.99-9.77.34-17.63 10.69-15.1 20.18 1.23 6.32 6.54 10.99 12.52 12.84zM761.774 326.774c-2.43 7.6.34 16.46 6.5 21.49 5.02 4.18 12.15 5.96 18.48 4.1 8.08-2 14.39-9.47 15.14-17.73.58-5.01-.96-10.14-3.84-14.24-.02-.04-.08-.11-.11-.15a27.624 27.624 0 0 0-3.73-3.76c-.03-.03-.1-.08-.14-.11-5.21-3.78-12.16-5.53-18.38-3.4-6.56 1.87-12.08 7.2-13.92 13.8zM324.924 326.493c-3-7.18-11.46-11.41-19.01-9.49-8.93 1.9-14.98 11.99-12.13 20.75 2.31 9.08 13.2 14.62 21.87 10.97 8.68-3.04 13.14-13.92 9.27-22.23zM390.774 394.844c5.49 1.5 11.68-.3 15.65-4.33 4.06-3.99 5.97-10.18 4.49-15.73-1.45-5.87-6.31-10.82-12.25-12.14-4.44-1.12-9.15-.11-13.13 2.03-1.61 1.47-3.22 2.96-4.65 4.62-2.2 3.67-3.37 8.08-2.53 12.35 1.08 6.32 6.16 11.77 12.42 13.2zM332.784 372.283c-8.76-.15-16.64 7.73-16.38 16.51-.26 8.45 6.92 16.07 15.31 16.62 7.94.81 15.39-4.97 17.62-12.45.28-2.78.28-5.58-.02-8.35-2.19-7.08-8.95-12.65-16.53-12.33zM897.934 1045.974c-2.01-10.84-4.58-21.58-6.45-32.44.19-.21.58-.64.77-.86 6.17-.38 12.37.14 18.55-.22-.02-14.23-.01-28.46.1-42.69.02-.36.05-1.07.07-1.43-.3-14.06-.23-28.13-.05-42.19-66.76.02-133.51.03-200.26 0-27.3 1.13-54.64.39-81.96.59-36.67.02-73.33.01-110 0-6.16-.06-12.36.29-18.48-.58.13 28.91 0 57.81.07 86.71 7.44-.06 14.88-.01 22.32-.02l-.44 2.21c-.02.1-.07.29-.09.38-9.73 47.09-19.05 94.26-28.61 141.39-3.45 17.65-7.35 35.23-10.49 52.94h33c13.19-65.65 26.45-131.29 39.67-196.93 15.01-.02 30.02.07 45.03-.05.65 4.93.88 9.91 1.14 14.88.26 6.99 1.22 13.97 1.12 20.98-1.51 7.35-3.9 14.5-5.73 21.78-12.66 46.44-25.19 92.91-37.9 139.34h33.68c5.55-19.89 10.77-39.88 16.33-59.76.63 7.38 1.15 14.79 1.36 22.21.28 3.93.6 7.86.82 11.81.05 1.01.1 2.04.15 3.1l.07 1.3c.61 7.1.94 14.22 1.42 21.34h38.71c.04-.31.12-.93.17-1.24-.16-1.56-.28-3.1-.38-4.63-1.33-20.46-2.73-40.92-3.75-61.39l-.24-3.7c-.77-9.8-1.4-19.61-1.84-29.41-.13-1.81-.26-3.58-.35-5.37-.28-3.59-.61-7.18-.64-10.78-.56-7.09-.93-14.2-1.32-21.3-.96-11.34-1.43-22.72-2.24-34.07-.19-2.39-.29-4.82.41-7.12 1.62-5.99 3.27-11.98 4.9-17.96 16.27.06 32.54.08 48.82 0 5.85-.89 11.81-.7 17.7-.2 5.96.51 11.95.08 17.93.33 8.84.22 17.69 0 26.53.08-.32 10.98-.89 21.95-1.52 32.92l-.05.82c-.15 2.17-.3 4.35-.39 6.55-1.07 22.26-2.15 44.54-3.47 66.79-.1 3.09-.29 6.18-.47 9.28-1.22 25.56-2.43 51.13-3.99 76.68l-.07 1.32c.01.6.02 1.8.03 2.4h38.8c.37-8.03.72-16.06 1.31-24.08l.16-2.7c.01-.85.03-1.69.07-2.52.15-4.41.46-8.8.74-13.19.81-20.47 2.01-40.92 3.13-61.38 9.25 34.67 18.67 69.29 28.2 103.87h33.46c-14.28-52.36-28.52-104.74-42.66-157.14-.49-1.62-.94-3.23-1.37-4.84-3.24-11.57-6.27-23.2-9.46-34.78 4.21-.53 8.43.13 12.66-.04 6.22-.18 12.44-.16 18.67-.05 9.02.18 18.05.07 27.08.1 2.08 10.94 4.38 21.85 6.55 32.78l.18.87.27 1.28c10.87 53.95 21.61 107.92 32.68 161.82h33c-10.96-53.28-21.54-106.64-32.36-159.95-.28-1.3-.54-2.57-.8-3.84zM1268.774 745.954c.01-4.89.06-9.79.01-14.68-.06-10.99-.02-21.97-.01-32.96-.015-4.549-.027-9.097-.03-13.644h-.001v-30.546h-.029c0-3.495.015-6.989.029-10.483V623.12a499.013 499.013 0 0 1 0-4.15v-24.36c-.005-2.33-.012-4.658-.029-6.987.08-33 .05-66.01.02-99.01l-.01-.64c-.11-12.18.24-24.36-.15-36.54-5.68 3.28-11.16 6.89-16.9 10.06-.86.47-1.71.93-2.53 1.41-14.25 9.13-28.91 17.65-43.34 26.5-15.04 9.11-30.1 18.2-45.13 27.33-6.73 3.84-13.09 8.41-20.03 11.8-22.62.42-45.27.08-67.89.17-4.02.09-8.04.12-12.05-.01-6.61-.02-13.21.05-19.81.01-.03 19.02-.02 38.04 0 57.06 0 .46.01 1.37.01 1.83.01 5.36-.03 10.71-.09 16.07l-2.29.8c.58-.17 1.75-.53 2.33-.71.02 9.78.04 19.56.02 29.33 0 7.2.04 14.41.02 21.61v.84c-.05 5.27-.01 10.54-.03 15.81v.47c.04 16.58-.1 33.16.07 49.74 7.54.18 15.09.12 22.63.08 6.07 0 12.15-.01 18.23 0 10.73.07 21.47-.04 32.2.08h.39c5.86-.14 11.72-.07 17.59-.08 4.03.17 8.54-.86 12.01 1.79 12.01 7.6 24.52 14.41 36.32 22.35 1.07.54 2.14 1.1 3.23 1.7 1.61.91 3.18 1.9 4.77 2.88.37.22 1.1.67 1.47.9 3.98 2.25 7.74 4.91 11.93 6.8l2.5 1.546.17-.125c.31.284.63.553.952.819l26.958 16.67c12.14 7.36 24.278 14.726 36.46 22.02.08-17.07.02-34.14.02-51.2 0-.46.01-1.37.01-1.83z"/><path d="M1045.464 390.543c2.05-4.37 3.9-8.84 5.71-13.31.8-2.19 1.64-4.37 2.52-6.54 5.57-15 9.55-30.56 12.23-46.32l.2-1.26c6.86-44.71 1.82-91.22-15.09-133.21-.15-.36-.45-1.07-.6-1.42-2.12-4.97-4.43-9.85-6.68-14.75-3.01-6.27-6.36-12.37-9.9-18.35-8.78-14.85-19.29-28.61-30.79-41.46-22.55-24.41-49.79-44.5-79.97-58.44-59.09-27.63-129.03-30.75-190.41-8.72l-.8.3c-38.26 13.69-72.91 37-100.41 66.88-11.45 12.6-21.41 26.43-30.56 40.77-3.23 6.01-6.64 11.93-9.64 18.07-2.5 5.15-4.82 10.39-7.07 15.66l-.56 1.31c-6.71 16.89-11.76 34.45-14.7 52.39-10.33 2.04-20.67 4.13-31.05 5.85-4.58-8.25-10.4-15.7-15.73-23.46-.06-.07-.17-.21-.23-.28-3.78-3.82-6.99-8.15-10.7-12.02-7.43-8.03-15.56-15.39-24.1-22.22l-.64-.51c-11.41-8.62-23.51-16.39-36.36-22.68-1.18-.58-2.36-1.16-3.54-1.71-5.61-2.53-11.29-4.93-17.02-7.18-5.26-1.53-10.42-3.39-15.72-4.82-36.35-10.08-75.46-9.93-111.78.24-31.85 8.91-61.5 25.58-85.67 48.17-24.78 22.99-43.84 52.12-54.93 84.06-12.77 36.61-14.98 76.81-6.41 114.63 8.6 38.39 28.5 74.14 56.48 101.78 26.61 26.58 60.59 45.53 97.06 54.64-.17 7.7-.07 15.4-.08 23.11-14.04.19-28.08-.02-42.13.11-.13-.51-.4-1.52-.53-2.02-15.87-5.86-31.72-11.74-47.57-17.64-2.11-.83-4.4-.88-6.64-.86-10.23.08-20.46.02-30.69.04 5.8 11.89 11.48 23.83 17.23 35.74 1.78 3.9 3.98 7.64 5.28 11.76l.17.33c6.21 11.23 11.21 23.12 16.98 34.6 5.26 10.91 10.44 21.85 15.75 32.74 6.74-1.98 13.56-3.71 20.35-5.52 3.6-5.84 7.18-11.69 10.76-17.54l.5-.81c1.45-.82 3.12-.81 4.74-.81 10.31.08 20.62.1 30.92-.01 1.71-.01 3.42.2 5.07.62-.25 86.75-.08 173.51-.08 260.26 22.23-.01 44.47 0 66.71-.01-2.55 19.33-5.25 38.64-7.73 57.97-48.93 9.39-97.89 18.67-146.84 27.99l-.7.15c-4.04.51-8.1 2.14-12.15 1.8-10.47-5.13-20.73-10.72-31.09-16.05-1.28-.53-2.58-1.56-4.04-1.08-40.67 7.74-81.34 15.55-122.03 23.25l-.71.15c-1.28.23-2.57.47-3.86.71 2.8 23.92 6 47.8 8.77 71.73 29.01-5.3 57.95-10.97 86.93-16.42 13.86-2.79 27.87-5 41.64-8.11 7.06-6.23 13.19-13.49 20.19-19.8l.13-.14c2.68-2.98 5.5-5.83 8.36-8.62 1.01-1.14 2.52-1.49 3.94-1.81 30.51-6.5 60.99-13.16 91.5-19.69.68-.14 2.02-.43 2.69-.58 14.43-3.13 28.87-6.22 43.3-9.36l.72-.17c9.11-1.92 18.19-3.93 27.3-5.85l.73-.18c1.32-.32 2.65-.61 3.98-.89 3.94-24.62 8.06-49.22 12.08-73.82l.24-1.11c89.33-.14 178.67-.02 268-.06 10.23.26 20.5-.56 30.69.47 86.45-.28 172.91-.02 259.35-.13 25.57.17 51.15-.29 76.7.23-.55-23.83-.1-47.69-.24-71.54-.13-55.98.25-111.96-.02-167.95-.26-5.48-.26-10.97.17-16.44.14-22.57.02-45.14.05-67.71-.39-33.22-.08-66.45-.16-99.68.05-3.37.02-6.75-.04-10.12-18.4-.1-36.81.21-55.2-.15 4.73-4.18 9.53-8.26 14.05-12.67l2.83-3.03c2.33-2.15 4.6-4.37 6.77-6.68 12.27-13.41 23.4-27.92 32.56-43.64l.64-1.03c3.56-6.1 6.83-12.37 9.92-18.72.18-.35.52-1.05.7-1.4zm-709.27 411.4c-1.39-.03-2.79-.05-4.17-.05l-1.12-.03c.14-74.21-.15-148.42.15-222.62l-.06-.16c1.72-.03 3.43-.07 5.15-.14.63 14.26.26 28.58.35 42.86.02 55.34-.02 110.69-.01 166.03-.03 4.7.23 9.42-.29 14.11zm10.36-175.19c.03 58.38-.05 116.76.04 175.14-1.35-.02-2.7-.02-4.04-.01l-1.23.01c0-74.23.12-148.45-.05-222.68 1.84 0 3.78-.31 5.53.43-.57 15.68-.09 31.41-.25 47.11zm10.35 175.17-1.25-.03c-1.34 0-2.68.01-4.01.03.07-73.67.03-147.35.02-221.03l.2-1.79c1.69.06 3.38.12 5.07.19-.15 74.21-.08 148.42-.03 222.63zm10.34-.4-1.92.52-1.35.04c-.47-.15-1.41-.46-1.88-.61-.09-74.11.02-148.23-.06-222.35 1.75 0 3.5 0 5.25.01-.08 74.13.02 148.27-.04 222.39zm-57.2-366.17c-22.67-12.17-40.42-33.15-48.63-57.53-7.28-21.3-7.32-44.98-.03-66.28 9.04-27 29.83-49.75 55.91-61.17 31.48-14.18 70.09-11.05 98.69 8.36 1.06.85 2.83 1.27 3.39 2.53.38.27 1.15.81 1.53 1.08.4.28 1.2.84 1.6 1.11 19.74 15.07 33.36 37.77 37.94 62.13.31 1.89.75 3.81.6 5.75 1.48 9.47 1.27 19.15-.25 28.6-2.11 18.51-10.58 36.02-22.22 50.45h-.08c-.41.38-1.23 1.15-1.64 1.53-5.66 7.5-13.13 13.55-20.93 18.72-12.39 8.09-26.54 13.88-41.25 15.74-.74.13-2.23.38-2.97.51-21.09 2.72-42.99-1.37-61.66-11.53zm151.77 148.81c-28 .33-56.01.02-84.02.16-.1 1.74.11 3.55-.36 5.26 28.12-.25 56.25-.01 84.37-.12l-.17 1.4c.01 1.23.03 2.48.05 3.73-27.99-.05-55.98 0-83.97-.03-.01 1.73-.04 3.47.08 5.21 27.69-.04 55.39.02 83.09-.03l.78-.01c-.03 1.7-.05 3.42-.05 5.14-27.91-.08-55.83.07-83.74-.07-.2 1.68-.16 3.38-.18 5.08 27.99-.06 55.99-.04 83.98 0-.01 1.24-.01 2.5-.01 3.76l.09 1.38c-27.97-.08-55.94.08-83.91-.08-.14 1.73-.13 3.48-.15 5.23 25.34-.08 50.69 0 76.03-.04 2.73-.01 5.5-.16 8.2.37l-.01 1.44c-.12.39-.37 1.15-.5 1.54l.49 1.57c-1.7.31-3.42.57-5.14.6-26.39-.05-52.79-.03-79.18 0-.03 13.57.08 27.14-.05 40.71l.24.85c20.75-.07 41.5-.17 62.25.05-.03 1.67-.04 3.36-.03 5.05-20.76-.09-41.51.05-62.26-.06-.01 1.73.16 3.5-.24 5.22 20.83-.29 41.68-.01 62.52-.14-.01 1.76-.01 3.53 0 5.3-20.78-.09-41.57.03-62.35-.06.03 1.79.01 3.6-.04 5.41 3.34-.5 6.72-.31 10.09-.32 17.43 0 34.86-.01 52.29.01-.02 1.73-.03 3.46-.03 5.21-20.79-.08-41.57.02-62.36-.05-.02 1.74-.07 3.49-.02 5.25 14.68-.66 29.41-.1 44.12-.28 5.79.08 11.59-.19 17.39.17l.87-.18c.01 1.72.02 3.44.05 5.18-20.65-.1-41.31.14-61.96-.12-.56 1.69-.26 3.54-.4 5.31 20.82.11 41.66-.36 62.46.24-.07 1.61-.13 3.23-.16 4.86-20.75-.11-41.49.09-62.23-.11-.24 29.59-.05 59.18-.1 88.77l-1.16.12c-.49-.07-1.47-.22-1.96-.3-.53.05-1.58.15-2.1.19-.01-74.23.09-148.47-.05-222.71 29.66-.1 59.33-.09 88.98 0 .2.41.58 1.24.77 1.66-.19.44-.56 1.31-.75 1.75l.45 1.53zm21.06 217.75-1.3-.03c-1.33-.01-2.65 0-3.96.02.14-74.27-.14-148.55.14-222.82 1.7.02 3.41.05 5.12.07-.02 74.25-.01 148.51 0 222.76zm10.32-.59c-.46.18-1.37.55-1.83.73-.32-.01-.96-.03-1.28-.03-.5-.11-1.51-.32-2.01-.42-.11-74.16-.01-148.32-.05-222.48h5.26c-.08 74.06.1 148.14-.09 222.2zm9.98.94-1.4-.43c-.48.02-1.43.04-1.91.05l-1.47.06c-.04-74.26.06-148.52-.05-222.78 1.76-.05 3.51-.13 5.28-.19.08 73.27-.03 146.54.05 219.8-.01 1.18-.17 2.34-.5 3.49zm10.76-.08-1.23-.31c-1.35 0-2.69 0-4.03.01.09-54.69.01-109.39.03-164.09-.09-19.44.2-38.89-.15-58.33 1.73-.29 3.48-.37 5.24-.39l.6-.01c.37 73.21-.07 146.44.19 219.65.04 1.2-.17 2.35-.65 3.47zm10.42-.26c-1.77-.02-3.55-.03-5.31-.03-.08-74.26.02-148.53-.05-222.79 1.78-.01 3.57 0 5.37.01.01 74.27.01 148.54-.01 222.81zm2.26-324.11c2.97-4.79 6.46-9.24 9.17-14.19.115-.017 1.51-2.15 1.89-2.76 3.41-5.74 6.41-11.69 9.42-17.63.99-2.38 2.03-4.73 3.26-6.99 2.36-6.74 5.23-13.32 7.22-20.2 8.38-1.08 16.57-3.44 24.95-4.35 1.39-.4 2.79-.78 4.23-1.04 3.93-.67 7.85-1.37 11.8-1.97.96 1.68 1.92 3.38 2.9 5.06 9.07 14.53 19.17 28.45 30.88 40.98l-.01.17c2.78 2.76 5.59 5.5 8.09 8.52 5.43 4.64 10.58 9.69 16.03 14.36-43.27.19-86.55.12-129.83.04zm20.13 324.07c-1.45 0-2.89.01-4.33.03 0-74.19.18-148.39-.09-222.59 1.75-.21 3.51-.31 5.27-.36.23 74.3-.02 148.6.12 222.9l-.97.02zm11.23.14-1.26-.13c-1.36-.01-2.72-.02-4.07-.01.26-68.72.04-137.44.11-206.16-.09-5.38.24-10.77-.26-16.13 1.71-.5 3.5-.47 5.28-.5l.65-.02c.24 72.56 0 145.12.12 217.69-.04 1.75-.26 3.52-.57 5.26zm10.27-.08-1.55-.04-1.96-.04-1.52.3c-.54-3.1-.38-6.24-.37-9.35 0-53.7-.02-107.4-.01-161.1.11-17.41-.24-34.83.28-52.23l-.03-.33c1.73 0 3.47-.01 5.21-.01l-.03.42c.59 23.73.12 47.48.26 71.21.01 32 0 64 0 96-.2 18.39.39 36.8-.28 55.17zm5.13.07c-.32-1.74-.45-3.5-.4-5.24.02-72.56-.05-145.12.07-217.69l.57.02 5.03-.03c.11 74.26-.06 148.51.11 222.77-1.8.03-3.6.08-5.38.17zm107.41-10.31c-30.61.03-61.22-.06-91.84.04.03 1.64.03 3.28.13 4.94 30.58-.09 61.15.02 91.73-.06l-.09 1.24c.02 1.37.06 2.76.11 4.15-1.56-.09-3.11-.12-4.62-.38-30.54.58-61.11.04-91.66.26l-.88.03c.13-74.31-.14-148.62.13-222.92 1.75.07 3.51.14 5.27.24-.17 58.86.02 117.73-.09 176.6l.14.06c30.53-.45 61.09-.06 91.63-.2-.01 1.36-.02 2.72-.01 4.09l.09 1.04c-30.6-.02-61.2.03-91.8-.03-.03 1.67-.05 3.36-.07 5.05 25.91.19 51.84.01 77.76.08 4.76.2 9.59-.46 14.31.38l-.28 1.58c-.01.43-.02 1.28-.02 1.7l.11 1.44c-30.63 0-61.26-.11-91.89.06l-.45.78c.9 1.27.92 2.54.05 3.83 1.94.8 4.09.46 6.14.53 25.99-.06 51.99-.01 77.98-.02 2.77-.01 5.58-.2 8.33.33l-.27 1.3c-.01.46-.04 1.39-.06 1.86l.39 1.32c-2.75.56-5.56.36-8.34.36-27.97-.05-55.93.06-83.9-.06.08 1.43.12 2.87.11 4.32 29.6.46 59.2.14 88.8.16 1.18-.07 2.3.15 3.36.68l-.4 1.34c.03 1.28.06 2.57.1 3.88zm23.21-578.59c3.2-5.17 6.39-10.51 10.6-14.9 1.37-2.32 3.17-4.36 5.26-6.07.34-.99 1.13-1.74 1.92-2.41l.94-.97c.32-.15.96-.44 1.28-.59 2.09-3.54 5.6-5.86 8.61-8.54 2.76-2.1 5.32-4.64 8.45-6.17 3.16-2.38 6.54-4.46 10.05-6.3l.04-.27c8.07-4.5 16.6-8.16 25.41-10.92 1.92-.61 3.94-.87 5.95-.99l-.03-.5c14.39-3.92 29.43-3.69 44.19-3.05a32 32 0 0 1 8.03 1c5.52.75 10.89 2.33 16.29 3.68 10.45 3.2 20.43 7.86 29.79 13.5.98.68 9.77 6.9 11.78 8.32 3.58 3.12 7.58 5.91 10.44 9.77-.23.011 5.79 5.83 5.79 5.83 3.71 3.96 7.49 8.11 9.91 13 1.28 1.38 2.4 2.9 3.39 4.53.44.9.9 1.81 1.38 2.73 17.05 28.02 21.66 63 13.86 94.74-1.17 5.18-5.16 15.71-5.36 15.87-1.78 6.63-10.837 21.72-10.81 22.08-1.19 2.67-3.25 4.81-5.01 7.1-2.33 3.06-4.58 6.22-7.36 8.9-.72.78-1.44 1.56-2.14 2.35-2.13 2.8-4.87 5.07-7.44 7.44-7.72 7.63-17.22 13.68-26.79 18.91l-.24-.03c-1.17.55-2.29 1.13-3.45 1.67-8.35 4.15-17.27 6.92-26.21 9.44-1.4.24-2.82.47-4.19.72-2.45.45-4.9 1.04-7.4.89-11.68 1.78-23.63 1.79-35.3-.08-9.6-.49-18.74-3.97-27.87-6.72-.2-.32-.61-.94-.81-1.26l-1.19.22c-16.4-6.61-31.38-16.75-43.65-29.48l-.17-.17c-13.81-14.27-24.24-31.81-30.07-50.8-10.5-33.83-6.17-72.07 12.13-102.47zm272.51 588.68c-1.67.04-3.34.08-4.98.14-12.6-74.27-25.16-148.56-37.73-222.84 1.77.02 3.56.04 5.35.07 12.32 74.23 24.85 148.43 37.36 222.63zm-100.03-.01c-2.01.06-4.01.1-6 .13 21.52-49.09 43.04-98.18 64.55-147.28.97-3.2-.64-6.6-.79-9.85-8.59 18.46-16.32 37.33-24.64 55.93-14.65 33.73-29.5 67.38-44.09 101.14-.786.008-3.321-.013-6.237-.028L932.45 635.1l-1.728-10.048-77.588 176.763c-2.42.009-4.42.04-5.109.118h-.138l81.373-185.385-1.728-10.047-85.786 195.438-5.241.005c29.86-67.97 59.62-135.99 89.45-203.97.53-3.13-.67-6.4-1.51-9.42-30.94 71.09-62.22 142.04-93.07 213.17-1.96.11-3.92.18-5.87.27-19.26-44.49-38.23-89.1-57.4-133.63-1.4-3.17-2.56-6.45-4.28-9.47-8.11 47.67-16.28 95.33-24.34 143-1.69 0-3.37.01-5.03.04 8.37-50.1 16.65-100.22 25.01-150.32.56-3.87-1.88-7.36-3.05-10.91-9.23 53.72-18.43 107.44-27.57 161.16-1.58.02-3.15.05-4.72.09 9.33-55.67 18.71-111.34 28.07-167.02.96-3.96-2.01-7.4-3.08-11.03-2.13 9.13-3.21 18.48-4.94 27.7-8.47 50.1-16.97 100.19-25.4 150.3-1.79-.02-3.56-.02-5.33-.01 10.56-62.05 20.94-124.13 31.44-186.19.17-3.58-2.1-6.78-3.53-9.93-11 65.39-22.12 130.76-33.3 196.13-1.62.01-3.23.03-4.84.08 11.22-68.13 22.98-136.17 34.31-204.27-.71-3.2-2.21-6.3-3.99-9.04-11.8 71.09-23.85 142.14-35.8 213.21-1.76 0-3.52 0-5.26.02 12.56-74.26 25.2-148.51 37.67-222.78l5.47-.03c31.01 72.1 61.73 144.32 92.61 216.48 1.06-1.89 2.02-3.82 2.91-5.78-30.14-70.17-59.99-140.46-90.1-210.64 1.83-.04 3.67-.06 5.52-.08 29.17 67.9 58.12 135.89 87.21 203.83.97-2.04 1.91-4.09 2.86-6.13-28.07-65.87-56.08-131.76-84.03-197.67 2-.01 4.02 0 6.04-.01 22.31 52.28 44.38 104.66 66.59 156.99 4.64 11.19 9.61 22.24 14.05 33.51 1.42-1.95 2.32-4.2 3.37-6.35-26.28-61.41-52.86-122.7-79.07-184.14h5.8c25.19 59.13 50.7 118.11 75.77 177.29.89-2.42 3.46-4.83 2.33-7.52-24.25-56.59-48.54-113.18-72.77-169.78 1.87 0 3.74.01 5.62.03 23.39 54.96 46.97 109.84 70.4 164.78 24.18-54.92 48.31-109.87 72.48-164.81 1.71 0 3.43 0 5.17-.01 12.67 74.27 25.16 148.56 37.76 222.84-1.79-.03-3.56-.04-5.32-.03-7.75-46.19-15.64-92.35-23.5-138.51-20.54 46.01-40.62 92.24-60.84 138.4zm84.36 67.842c-13.232 0-23.959-10.726-23.959-23.958 0-13.232 10.727-23.959 23.958-23.959 13.232 0 23.959 10.727 23.959 23.959 0 13.231-10.727 23.958-23.959 23.958zm21.03-67.741c-12.63-74.25-25.08-148.53-37.77-222.77 1.77-.02 3.55-.02 5.34-.03 12.53 74.28 25.13 148.55 37.69 222.82-1.77-.02-3.52-.02-5.26-.02zm10.3.04c-12.39-74.28-24.89-148.55-37.4-222.82 1.64 0 3.28 0 4.94.01 12.72 74.25 25.17 148.55 37.77 222.82-1.78-.02-3.55-.02-5.31-.01zm15.93.01c-1.76-.04-3.51-.05-5.24-.06-12.56-74.25-25.16-148.5-37.69-222.76 1.73-.01 3.47-.01 5.22-.02 12.6 74.27 25.18 148.55 37.71 222.84z"/></svg>